<?xml version="1.0" encoding="utf-8"?>
<!-- Generator: Adobe Illustrator 24.1.0, SVG Export Plug-In . SVG Version: 6.00 Build 0)  -->
<svg version="1.1" id="LOGOS" xmlns="http://www.w3.org/2000/svg" xmlns:xlink="http://www.w3.org/1999/xlink" x="0px" y="0px"
	 viewBox="0 0 192.1 205" style="enable-background:new 0 0 192.1 205;" xml:space="preserve">
<style type="text/css">
	.st0{fill-rule:evenodd;clip-rule:evenodd;fill:#623CE4;}
	.st1{fill-rule:evenodd;clip-rule:evenodd;fill:#3C2AA8;}
</style>
<g>
	<path d="M9.6,175.8H0v-5.7h25.7v5.7h-9.6v28.7H9.6V175.8z"/>
	<path d="M32.5,199.8c2.6,0,5.2-0.4,7.7-1.2l1,4.8c-3,1.1-6.1,1.6-9.2,1.6c-7.9,0-10.6-3.7-10.6-9.7v-6.7c0-5.3,2.4-9.8,10.4-9.8
		s9.9,4.7,9.9,10.1v5.4h-14v1.3C27.6,198.6,28.7,199.8,32.5,199.8z M27.6,189.2h8V188c0-2.4-0.7-4-3.8-4s-4.2,1.6-4.2,4V189.2z"/>
	<path d="M58.4,184.6c-2.3,1-4.5,2.3-6.7,3.7v16.2h-6.3v-25.2h5.3l0.4,2.8c2-1.4,4.3-2.5,6.6-3.3L58.4,184.6z"/>
	<path d="M73.8,184.6c-2.3,1-4.5,2.3-6.7,3.7v16.2h-6.3v-25.2h5.3l0.4,2.8c2-1.4,4.3-2.5,6.6-3.3L73.8,184.6z"/>
	<path d="M94.9,204.5h-5.2l-0.5-1.7c-2.2,1.4-4.8,2.2-7.5,2.2c-4.6,0-6.6-3.1-6.6-7.5c0-5.1,2.2-7.1,7.3-7.1h6v-2.6
		c0-2.8-0.8-3.8-4.8-3.8c-2.4,0-4.7,0.3-7,0.8L76,180c2.8-0.8,5.7-1.2,8.6-1.2c7.9,0,10.2,2.8,10.2,9.1L94.9,204.5z M88.6,195h-4.7
		c-2.1,0-2.6,0.6-2.6,2.5c0,1.8,0.6,2.5,2.5,2.5c1.7,0,3.3-0.5,4.8-1.3V195z"/>
	<path d="M114.2,173.6c-1.2-0.3-2.4-0.4-3.6-0.4c-2.5,0-2.8,1.1-2.8,3v3.1h6.4l-0.4,5h-6v20.2h-6.3v-20.2h-4v-5h4v-3.5
		c0-5.2,2.4-7.8,8-7.8c1.8,0,3.7,0.2,5.4,0.7L114.2,173.6z"/>
	<path d="M126.5,205c-8.6,0-10.9-4.8-10.9-9.9v-6.4c0-5.2,2.3-9.9,10.9-9.9s11,4.8,11,9.9v6.4C137.5,200.2,135.2,205,126.5,205z
		 M126.5,184.1c-3.4,0-4.6,1.5-4.6,4.3v6.8c0,2.8,1.3,4.3,4.6,4.3s4.6-1.5,4.6-4.3v-6.8C131.2,185.6,129.9,184.1,126.5,184.1z"/>
	<path d="M153.7,184.6c-2.3,1-4.5,2.3-6.7,3.7v16.2h-6.3v-25.2h5.4l0.4,2.8c2-1.4,4.3-2.5,6.6-3.3L153.7,184.6z"/>
	<path d="M171,204.5v-17.6c0-1.3-0.6-2-2-2c-2.3,0.3-4.5,1-6.6,2.1v17.5h-6.4v-25.2h4.8l0.6,2.1c3.1-1.6,6.6-2.5,10.1-2.6
		c2.4,0,3.9,1,4.8,2.7c3.1-1.6,6.6-2.5,10.1-2.7c4.2,0,5.7,2.9,5.7,7.4v18.3h-6.3v-17.6c0-1.3-0.6-2-2-2c-2.3,0.2-4.5,1-6.6,2.1
		v17.5H171z"/>
	<path d="M6.7,161.6v-4.8H2.2v4.8H0v-11.6h2.2v4.9h4.4v-4.9h2.3v11.6H6.7z M17.2,161.6h-1.8l-0.2-0.6c-0.8,0.5-1.7,0.7-2.6,0.7
		c-1.6,0-2.3-1.1-2.3-2.5c0-1.7,0.8-2.4,2.5-2.4H15V156c0-0.9-0.3-1.2-1.7-1.2c-0.8,0-1.6,0.1-2.4,0.3l-0.3-1.6c1-0.3,2-0.4,3-0.4
		c2.7,0,3.5,0.9,3.5,3L17.2,161.6z M15,158.4h-1.6c-0.7,0-0.9,0.2-0.9,0.8s0.2,0.8,0.9,0.8c0.6,0,1.1-0.1,1.7-0.4V158.4z
		 M21.8,161.7c-1,0-2-0.2-3-0.5l0.3-1.6c0.8,0.2,1.7,0.4,2.6,0.4c1,0,1.1-0.2,1.1-0.8s-0.1-0.8-1.5-1.1c-2.1-0.5-2.4-1-2.4-2.6
		s0.8-2.4,3.3-2.4c0.9,0,1.8,0.1,2.6,0.3l-0.2,1.7c-0.8-0.1-1.6-0.2-2.4-0.2c-1,0-1.1,0.2-1.1,0.7c0,0.7,0,0.7,1.2,1
		c2.4,0.6,2.7,0.9,2.7,2.6S24.4,161.7,21.8,161.7z M31.8,161.6v-5.8c0-0.4-0.2-0.7-0.7-0.7c-0.8,0.1-1.6,0.3-2.3,0.7v5.8h-2.2v-11.8
		l2.2,0.3v3.7c1-0.5,2.1-0.8,3.2-0.8c1.4,0,2,1,2,2.5v6.1L31.8,161.6z M35.8,152v-2.1h2.2v2.1H35.8z M35.8,161.6v-8.4h2.2v8.4
		L35.8,161.6z M39.7,153.2c0-2.1,1.3-3.3,4.2-3.3c1.1,0,2.2,0.1,3.2,0.4l-0.2,1.9c-1-0.2-1.9-0.3-2.9-0.3c-1.6,0-2.1,0.5-2.1,1.7
		v4.4c0,1.2,0.5,1.7,2.1,1.7c1,0,1.9-0.1,2.9-0.3l0.2,1.9c-1.1,0.3-2.1,0.4-3.2,0.4c-3,0-4.2-1.2-4.2-3.3V153.2z M52,161.7
		c-3,0-3.8-1.6-3.8-3.3v-2.1c0-1.7,0.8-3.3,3.8-3.3s3.8,1.6,3.8,3.3v2.1C55.8,160.1,55,161.7,52,161.7L52,161.7z M52,154.8
		c-1.2,0-1.6,0.5-1.6,1.4v2.2c0,1,0.4,1.4,1.6,1.4s1.6-0.5,1.6-1.4v-2.2C53.6,155.3,53.2,154.8,52,154.8L52,154.8z M61.9,154.9
		c-0.8,0.3-1.6,0.8-2.3,1.2v5.4h-2.2v-8.4h1.8l0.2,0.9c0.7-0.5,1.5-0.8,2.3-1.1L61.9,154.9z M70.7,158.8c0,1.9-0.9,3-2.9,3
		c-0.8,0-1.6-0.1-2.3-0.2v3.4l-2.2,0.3v-12H65l0.2,0.7c0.8-0.6,1.8-0.9,2.8-0.9c1.8,0,2.7,1,2.7,2.9L70.7,158.8z M65.4,159.7
		c0.6,0.1,1.3,0.2,1.9,0.2c0.8,0,1.1-0.4,1.1-1.1v-3c0-0.7-0.3-1.1-1.1-1.1c-0.7,0-1.4,0.3-1.9,0.8V159.7z"/>
	<polygon class="st0" points="77.3,24.2 114.9,45.9 114.9,89.3 77.3,67.6 	"/>
	<polygon class="st1" points="119,45.9 119,89.3 156.6,67.6 156.6,24.2 	"/>
	<polygon class="st0" points="35.6,0 35.6,43.4 73.2,65.1 73.2,21.7 	"/>
	<polygon class="st0" points="77.3,115.8 114.9,137.5 114.9,94.4 114.9,94.1 77.3,72.4 	"/>
</g>
</svg>
